<svg xmlns="http://www.w3.org/2000/svg" width="626" height="638" viewBox="0 0 626 638">
  <defs>
    <style>
      .cls-1 {
        fill: #101820;
      }

      .cls-2 {
        fill: none;
        stroke: #101820;
        stroke-miterlimit: 10;
        stroke-width: 26px;
      }
    </style>
  </defs>
  <g id="chili">
    <g>
      <g>
        <path class="cls-1" d="M165,294a70,70,0,1,1-70,70,70.08,70.08,0,0,1,70-70m0-26a96,96,0,1,0,96,96,96,96,0,0,0-96-96Z"/>
        <path class="cls-1" d="M463,294a70,70,0,1,1-70,70,70.08,70.08,0,0,1,70-70m0-26a96,96,0,1,0,96,96,96,96,0,0,0-96-96Z"/>
        <line class="cls-2" x1="165.5" y1="364.5" x2="294.5" y2="364.5"/>
        <line class="cls-2" x1="251.5" y1="240.5" x2="165.5" y2="364.5"/>
        <line class="cls-2" x1="231.5" y1="192.5" x2="294.5" y2="364.5"/>
        <line class="cls-2" x1="428.5" y1="249.5" x2="294.5" y2="364.5"/>
        <line class="cls-2" x1="407.06" y1="189.24" x2="464.06" y2="366.24"/>
        <line class="cls-2" x1="251.5" y1="240.5" x2="418.5" y2="224.5"/>
        <line class="cls-2" x1="206.3" y1="191.74" x2="270" y2="192.5"/>
        <line class="cls-2" x1="407.5" y1="189.5" x2="463.5" y2="185.5"/>
        <line class="cls-2" x1="446.5" y1="217.5" x2="463.5" y2="185.5"/>
      </g>
      <circle class="cls-2" cx="313.5" cy="320.5" r="297"/>
    </g>
  </g>
</svg>
